<svg width="181" height="246" viewBox="0 0 181 246" fill="none" xmlns="http://www.w3.org/2000/svg">
<path fill-rule="evenodd" clip-rule="evenodd" d="M42.0505 47.7481C30.3717 43.9222 21.9394 32.9648 21.9394 20.0444L32.2735 21.5493C29.209 16.9394 27.4242 11.4108 27.4242 5.46667L42.0505 7.59662V0L123.395 12.2378C132.338 13.5831 138.949 21.2423 138.949 30.2559V62.4148C145.258 64.0331 149.919 69.7407 149.919 76.5333C149.919 83.326 145.258 89.0336 138.949 90.6518V96.5778H138.873C137.947 113.115 128.673 127.43 115.182 135.406V143.956H131.636C141.253 143.956 149.136 151.356 149.864 160.755C167.484 163.369 181 178.511 181 196.8V246H0V196.8C0 177.877 14.4698 162.323 32.983 160.528C33.8194 151.237 41.6524 143.956 51.1919 143.956H65.8182V135.406C52.3271 127.43 43.0526 113.115 42.1268 96.5778H42.0505V91.1111C33.9726 91.1111 27.4242 84.5844 27.4242 76.5333C27.4242 68.4822 33.9726 61.9556 42.0505 61.9556V47.7481Z" fill="#C2D1D9"/>
</svg>
