<svg id="Layer_2" data-name="Layer 2" xmlns="http://www.w3.org/2000/svg" viewBox="0 0 869.15 843.01"><defs><style>.cls-1{fill:red;}.cls-2{fill:#fff;stroke:#000;stroke-miterlimit:10;}</style></defs><title>alfa_logo</title><polygon class="cls-1" points="414.8 0 0 606.83 330.3 606.83 407.12 675.97 407.12 453.2 337.98 522.34 176.67 522.34 414.8 168.99 414.8 0"/><path class="cls-1" d="M1178.44,453.54Q1072.11,298,968.2,143.52v169L1063.55,454Z" transform="translate(-515 -143.52)"/><path class="cls-1" d="M1226.39,523.55l-115.67.44.73,1.08q47.43,70.39,94.88,140.78H1045l-69.13-69.13V819.48l76.81-69.13H1383Q1304.71,637.66,1226.39,523.55Z" transform="translate(-515 -143.52)"/><path class="cls-2" d="M629.11,953.21H571.36l-10.08,32.66h-45l64.1-174.8H620l64.59,174.8H639.31Zm-47.66-32.53H619l-18.85-60.63Z" transform="translate(-515 -143.52)"/><line class="cls-2" x1="103.99" y1="777.49" x2="114.12" y2="809.33"/><line class="cls-2" x1="85.17" y1="716.7" x2="99.65" y2="667.48"/><path class="cls-2" d="M783.69,953.45H857v32.42H741.55V811.07h42.14Z" transform="translate(-515 -143.52)"/><line class="cls-2" x1="277.4" y1="809.93" x2="226.55" y2="809.93"/><path class="cls-2" d="M1183.38,916h-68.13v69.81H1073V810.53h117.24v32.62h-75v40.33h68.13Z" transform="translate(-515 -143.52)"/><line class="cls-2" x1="606.87" y1="699.64" x2="558" y2="699.64"/><path class="cls-2" d="M1327.82,953.28h-57.89L1259.81,986h-45.13L1279,810.76h39.73L1383.44,986h-45.38ZM1280,920.66h37.67l-18.89-60.78Z" transform="translate(-515 -143.52)"/><line class="cls-2" x1="802.68" y1="777.48" x2="812.84" y2="809.4"/><line class="cls-2" x1="783.82" y1="716.52" x2="798.33" y2="667.17"/></svg>