<svg width="50" height="50" viewBox="0 0 50 50" fill="none" xmlns="http://www.w3.org/2000/svg">
<path d="M32.2915 10.4167C35.2175 10.4167 36.6804 10.4167 37.7314 11.119C38.1863 11.423 38.577 11.8136 38.881 12.2685C39.5832 13.3195 39.5832 14.7825 39.5832 17.7084V37.5001C39.5832 41.4285 39.5832 43.3926 38.3628 44.613C37.1424 45.8334 35.1782 45.8334 31.2498 45.8334H18.7498C14.8215 45.8334 12.8573 45.8334 11.6369 44.613C10.4165 43.3926 10.4165 41.4285 10.4165 37.5001V17.7084C10.4165 14.7825 10.4165 13.3195 11.1187 12.2685C11.4227 11.8136 11.8133 11.423 12.2683 11.119C13.3192 10.4167 14.7822 10.4167 17.7082 10.4167" stroke="#FF2424"/>
<path d="M18.75 10.4167C18.75 8.11548 20.6155 6.25 22.9167 6.25H27.0833C29.3845 6.25 31.25 8.11548 31.25 10.4167C31.25 12.7179 29.3845 14.5833 27.0833 14.5833H22.9167C20.6155 14.5833 18.75 12.7179 18.75 10.4167Z" stroke="#FF2424"/>
<path d="M18.75 25L31.25 25" stroke="#FF2424" stroke-linecap="round"/>
<path d="M18.75 33.3333L27.0833 33.3333" stroke="#FF2424" stroke-linecap="round"/>
</svg>
