<svg width="74" height="74" viewBox="0 0 74 74" fill="none" xmlns="http://www.w3.org/2000/svg">
<path d="M12.3335 31.75C12.3335 29.8644 12.3335 28.9216 12.9193 28.3358C13.5051 27.75 14.4479 27.75 16.3335 27.75H57.6668C59.5524 27.75 60.4953 27.75 61.081 28.3358C61.6668 28.9216 61.6668 29.8644 61.6668 31.75V58.75C61.6668 61.5784 61.6668 62.9926 60.7881 63.8713C59.9095 64.75 58.4953 64.75 55.6668 64.75H18.3335C15.5051 64.75 14.0909 64.75 13.2122 63.8713C12.3335 62.9926 12.3335 61.5784 12.3335 58.75V31.75Z" stroke="white"/>
<path d="M49.3337 24.6667V19.25C49.3337 14.536 49.3337 12.1789 47.8692 10.7145C46.4047 9.25 44.0477 9.25 39.3337 9.25H34.667C29.9529 9.25 27.5959 9.25 26.1315 10.7145C24.667 12.1789 24.667 14.536 24.667 19.25V24.6667" stroke="white" stroke-linecap="round"/>
<circle cx="37.0002" cy="46.2502" r="6.16667" fill="white"/>
</svg>
