<svg width="38" height="38" viewBox="0 0 38 38" fill="none" xmlns="http://www.w3.org/2000/svg">
<path d="M30.875 15.0416V11.9083C30.875 10.7881 30.875 10.2281 30.657 9.80027C30.4653 9.42395 30.1593 9.11799 29.783 8.92624C29.3552 8.70825 28.7951 8.70825 27.675 8.70825H10.325C9.2049 8.70825 8.64484 8.70825 8.21702 8.92624C7.84069 9.11799 7.53473 9.42395 7.34299 9.80027C7.125 10.2281 7.125 10.7881 7.125 11.9083V15.0416M30.875 15.0416V27.6749C30.875 28.795 30.875 29.3551 30.657 29.7829C30.4653 30.1592 30.1593 30.4652 29.783 30.6569C29.3552 30.8749 28.7951 30.8749 27.675 30.8749H10.325C9.2049 30.8749 8.64484 30.8749 8.21702 30.6569C7.84069 30.4652 7.53473 30.1592 7.34299 29.7829C7.125 29.3551 7.125 28.795 7.125 27.6749V15.0416M30.875 15.0416H7.125" stroke="white"/>
<path d="M13.4585 5.54175L13.4585 11.8751M24.5418 5.54175L24.5418 11.8751" stroke="white" stroke-linecap="round"/>
<path d="M19 26.9167L19 19.0001" stroke="white" stroke-linecap="round"/>
<path d="M22.9585 22.9583L15.0418 22.9583" stroke="white" stroke-linecap="round"/>
</svg>
