<svg width="50" height="50" viewBox="0 0 50 50" fill="none" xmlns="http://www.w3.org/2000/svg">
<path d="M22.9165 21.8749H24.4998C24.776 21.8749 24.9998 22.0988 24.9998 22.3749V31.7916C24.9998 32.0677 25.2237 32.2916 25.4998 32.2916H27.0832M24.9999 17.7083H25.0207" stroke="white" stroke-linecap="round" stroke-linejoin="round"/>
<path d="M27.894 41.4134C30.0494 41.0333 32.1089 40.2324 33.9548 39.0564C35.8008 37.8805 37.397 36.3524 38.6524 34.5595C39.9078 32.7666 40.7977 30.7441 41.2714 28.6072C41.7452 26.4704 41.7934 24.2612 41.4133 22.1058C41.0332 19.9503 40.2323 17.8909 39.0564 16.0449C37.8804 14.199 36.3523 12.6028 34.5594 11.3474C32.7666 10.092 30.744 9.20204 28.6072 8.72832C26.4703 8.2546 24.2611 8.20639 22.1057 8.58646C19.9503 8.96652 17.8908 9.76741 16.0448 10.9434C14.1989 12.1194 12.6027 13.6474 11.3473 15.4403C10.0919 17.2332 9.20196 19.2558 8.72824 21.3926C8.25452 23.5294 8.20631 25.7386 8.58638 27.8941C8.96644 30.0495 9.76733 32.109 10.9433 33.9549C12.1193 35.8008 13.6474 37.3971 15.4402 38.6525C17.2331 39.9078 19.2557 40.7978 21.3925 41.2715C23.5293 41.7452 25.7385 41.7934 27.894 41.4134L27.894 41.4134Z" stroke="white"/>
</svg>
