<svg width="50" height="50" viewBox="0 0 50 50" fill="none" xmlns="http://www.w3.org/2000/svg">
<path fill-rule="evenodd" clip-rule="evenodd" d="M43.75 12.5H6.25V18.75H6.41667C8.30228 18.75 9.24509 18.75 9.83088 19.3358C10.4167 19.9216 10.4167 20.8644 10.4167 22.75V37.75C10.4167 40.5784 10.4167 41.9926 11.2953 42.8713C12.174 43.75 13.5882 43.75 16.4167 43.75H33.5833C36.4118 43.75 37.826 43.75 38.7047 42.8713C39.5833 41.9926 39.5833 40.5784 39.5833 37.75V22.75C39.5833 20.8644 39.5833 19.9216 40.1691 19.3358C40.7549 18.75 41.6977 18.75 43.5833 18.75H43.75V12.5ZM20.7917 22.9167C20.7917 22.3644 20.344 21.9167 19.7917 21.9167C19.2394 21.9167 18.7917 22.3644 18.7917 22.9167V33.3333C18.7917 33.8856 19.2394 34.3333 19.7917 34.3333C20.344 34.3333 20.7917 33.8856 20.7917 33.3333V22.9167ZM31.2083 22.9167C31.2083 22.3644 30.7606 21.9167 30.2083 21.9167C29.656 21.9167 29.2083 22.3644 29.2083 22.9167V33.3333C29.2083 33.8856 29.656 34.3333 30.2083 34.3333C30.7606 34.3333 31.2083 33.8856 31.2083 33.3333V22.9167Z" fill="#FF2424"/>
<path d="M20.9751 7.02206C21.2125 6.80057 21.7356 6.60485 22.4633 6.46526C23.191 6.32566 24.0826 6.25 24.9998 6.25C25.9171 6.25 26.8087 6.32566 27.5363 6.46526C28.264 6.60485 28.7871 6.80057 29.0245 7.02206" stroke="#FF2424" stroke-width="2" stroke-linecap="round"/>
</svg>
