<svg width="44" height="38" viewBox="0 0 44 38" fill="none" xmlns="http://www.w3.org/2000/svg">
<path d="M6.67962 7.09816L10.0707 3.70711C10.4612 3.31658 11.0944 3.31658 11.4849 3.70711L17.8484 10.0707C18.239 10.4612 18.239 11.0944 17.8484 11.4849L15.1763 14.157C14.872 14.4614 14.7965 14.9263 14.989 15.3113L15.1269 15.5872C17.3525 20.0383 20.9617 23.6475 25.4128 25.8731L25.6887 26.011C26.0737 26.2035 26.5386 26.128 26.843 25.8237L29.5151 23.1516C29.9056 22.761 30.5388 22.761 30.9293 23.1516L37.2929 29.5151C37.6834 29.9056 37.6834 30.5388 37.2929 30.9293L33.9018 34.3204C31.7905 36.4317 28.4479 36.6693 26.0592 34.8777L17.2952 28.3048C15.5517 26.9971 14.0029 25.4483 12.6952 23.7048L6.12226 14.9408C4.33072 12.5521 4.56827 9.20951 6.67962 7.09816Z" stroke="white"/>
</svg>
