<svg width="50" height="50" viewBox="0 0 50 50" fill="none" xmlns="http://www.w3.org/2000/svg">
<path d="M7.2915 16.4397C7.2915 15.4147 7.2915 14.9021 7.49416 14.512C7.66494 14.1832 7.93299 13.9152 8.26175 13.7444C8.65188 13.5417 9.16442 13.5417 10.1895 13.5417H39.8102C40.8353 13.5417 41.3478 13.5417 41.7379 13.7444C42.0667 13.9152 42.3347 14.1832 42.5055 14.512C42.7082 14.9021 42.7082 15.4147 42.7082 16.4397V35.6437C42.7082 36.6688 42.7082 37.1814 42.5055 37.5715C42.3347 37.9003 42.0667 38.1683 41.7379 38.3391C41.3478 38.5417 40.8353 38.5417 39.8102 38.5417H10.1895C9.16442 38.5417 8.65188 38.5417 8.26175 38.3391C7.93299 38.1683 7.66494 37.9003 7.49416 37.5715C7.2915 37.1814 7.2915 36.6688 7.2915 35.6437V16.4397Z" stroke="white"/>
<path d="M7.2915 21.875L42.7082 21.875" stroke="white" stroke-linecap="round"/>
<circle cx="13.5417" cy="32.2917" r="1.04167" fill="white"/>
</svg>
