<svg width="50" height="50" viewBox="0 0 50 50" fill="none" xmlns="http://www.w3.org/2000/svg">
<path d="M33.3335 43.75V35.25C33.3335 33.3644 33.3335 32.4216 32.7477 31.8358C32.1619 31.25 31.2191 31.25 29.3335 31.25H18.5835C16.6979 31.25 15.7551 31.25 15.1693 31.8358C14.5835 32.4216 14.5835 33.3644 14.5835 35.25V43.75" stroke="white"/>
<path d="M14.5835 16.6667H25.0002" stroke="white" stroke-linecap="round"/>
<path d="M6.25 12.25C6.25 9.42157 6.25 8.00736 7.12868 7.12868C8.00736 6.25 9.42157 6.25 12.25 6.25H34.5882C34.997 6.25 35.2014 6.25 35.3851 6.32612C35.5689 6.40224 35.7134 6.54676 36.0025 6.83579L43.1642 13.9975C43.4532 14.2866 43.5978 14.4311 43.6739 14.6149C43.75 14.7986 43.75 15.003 43.75 15.4118V37.75C43.75 40.5784 43.75 41.9926 42.8713 42.8713C41.9926 43.75 40.5784 43.75 37.75 43.75H12.25C9.42157 43.75 8.00736 43.75 7.12868 42.8713C6.25 41.9926 6.25 40.5784 6.25 37.75V12.25Z" stroke="white"/>
</svg>
